<?xml version="1.0" encoding="UTF-8"?>
<svg xmlns="http://www.w3.org/2000/svg" id="Слой_1" data-name="Слой 1" viewBox="0 0 1920 1080"> <defs> <style>.cls-1{fill:#fff;}.cls-2{fill:#00ba96;}.cls-3{fill:#05a7c1;}.cls-4{fill:#00ffaf;}.cls-5{fill:#00ecff;}.cls-6{fill:#00c3e6;}.cls-7{fill:#00dca4;}</style> </defs> <path class="cls-1" d="M720.92,489V545.4H782v8.05h-61.1V615h-9.76V481h80.33V489Z"/> <path class="cls-1" d="M722.27,616.37H709.81V479.63h83v10.76H722.27v53.66h61.1V554.8h-61.1Zm-9.75-2.7h7.05V552.1h61.09v-5.35H719.57V487.68h70.57v-5.34H712.52Z"/> <path class="cls-1" d="M910.56,615h-8.34a6.22,6.22,0,0,1-2.7-.52,5.35,5.35,0,0,1-2-1.94l-43-54.37a12.32,12.32,0,0,0-1.56-1.8,6.26,6.26,0,0,0-1.8-1.19,9.09,9.09,0,0,0-2.37-.61,24.62,24.62,0,0,0-3.36-.19H827.86V615h-9.75V481H852.4q23.1,0,34.62,8.95t11.51,26.29a36.14,36.14,0,0,1-2.65,14,33,33,0,0,1-7.63,11.13,39.77,39.77,0,0,1-12,7.82,56.89,56.89,0,0,1-15.87,4.07,15.33,15.33,0,0,1,4.08,3.79ZM851.07,547.2a55.2,55.2,0,0,0,16-2.13A34.28,34.28,0,0,0,879,539a26.25,26.25,0,0,0,7.43-9.56,29.9,29.9,0,0,0,2.56-12.6q0-14.31-9.33-21.22t-27.23-6.91H827.86V547.2Z"/> <path class="cls-1" d="M913.36,616.37H902.22a7.64,7.64,0,0,1-3.28-.65,6.63,6.63,0,0,1-2.58-2.41L853.42,559a12.25,12.25,0,0,0-1.43-1.66,4.86,4.86,0,0,0-1.41-.93,8.16,8.16,0,0,0-2-.51,23.67,23.67,0,0,0-3.18-.18H829.22v60.62H816.75V479.63H852.4c15.64,0,27.57,3.11,35.45,9.24s12,15.41,12,27.35a37.52,37.52,0,0,1-2.76,14.54,34.42,34.42,0,0,1-7.93,11.59,41.51,41.51,0,0,1-12.44,8.08,56.85,56.85,0,0,1-13.08,3.73,17.45,17.45,0,0,1,1.83,2.07ZM826.51,553h18.88a25.66,25.66,0,0,1,3.55.21,10.6,10.6,0,0,1,2.71.71,7.36,7.36,0,0,1,2.19,1.44,13.43,13.43,0,0,1,1.73,2l43,54.33a4.29,4.29,0,0,0,1.55,1.56,5,5,0,0,0,2.12.39h5.53l-44.38-55.78a14,14,0,0,0-3.74-3.48l-3.26-2,3.82-.45a56.16,56.16,0,0,0,15.5-4,38.48,38.48,0,0,0,11.62-7.54,31.72,31.72,0,0,0,7.32-10.68,34.88,34.88,0,0,0,2.55-13.5c0-11.06-3.7-19.55-11-25.22s-18.76-8.66-33.79-8.66H819.46V613.67h7Zm24.56-4.49H826.51V487.3H852.4c12.17,0,21.6,2.42,28,7.19s9.87,12.36,9.87,22.3A31.39,31.39,0,0,1,887.63,530a27.74,27.74,0,0,1-7.81,10,35.71,35.71,0,0,1-12.4,6.36A56.85,56.85,0,0,1,851.07,548.55Zm-21.85-2.71h21.85a54,54,0,0,0,15.57-2.07,33.11,33.11,0,0,0,11.47-5.86,25.18,25.18,0,0,0,7.06-9.08,28.74,28.74,0,0,0,2.44-12c0-9.17-2.87-15.75-8.78-20.13S864,490,852.4,490H829.22Z"/> <path class="cls-1" d="M1013.62,607l-.19,8H933.11V481h80.32V489H942.86v54.18h58.73v7.86H942.86V607Z"/> <path class="cls-1" d="M1014.75,616.37h-83V479.63h83v10.76H944.21v51.47h58.73v10.57H944.21v53.19H1015Zm-80.29-2.7h77.65l.13-5.35H941.51V549.73h58.73v-5.16H941.51V487.68h70.57v-5.34H934.46Z"/> <path class="cls-1" d="M1108.06,497.28a2.68,2.68,0,0,1-2.46,1.61c-.83,0-1.88-.58-3.18-1.76a40.87,40.87,0,0,0-13.54-7.81,41.65,41.65,0,0,0-25.11.28,26.88,26.88,0,0,0-9.28,5.69,24.23,24.23,0,0,0-5.68,8.33,25.9,25.9,0,0,0-1.94,10,20.34,20.34,0,0,0,2.88,11.27,26,26,0,0,0,7.63,7.58,49.54,49.54,0,0,0,10.75,5.26q6,2.13,12.36,4.21t12.36,4.6a44.44,44.44,0,0,1,10.76,6.3,28.91,28.91,0,0,1,7.62,9.33q2.89,5.53,2.89,13.78a43.28,43.28,0,0,1-2.89,15.86,37.06,37.06,0,0,1-8.38,12.93,39.29,39.29,0,0,1-13.45,8.67,48.75,48.75,0,0,1-18.19,3.17q-13.26,0-22.83-4.68A53.73,53.73,0,0,1,1031.62,599l2.65-4.17a3.34,3.34,0,0,1,2.65-1.42,3.8,3.8,0,0,1,2.18,1.14l3.22,2.79q1.89,1.67,4.55,3.6a36.38,36.38,0,0,0,6.15,3.6,43.46,43.46,0,0,0,8,2.8,42.71,42.71,0,0,0,10.33,1.13,39.2,39.2,0,0,0,14.21-2.41,30.86,30.86,0,0,0,10.56-6.59,27.76,27.76,0,0,0,6.58-9.89,32.88,32.88,0,0,0,2.28-12.27c0-4.74-1-8.63-2.89-11.7a24.92,24.92,0,0,0-7.63-7.67,49.36,49.36,0,0,0-10.75-5.16q-6-2.09-12.36-4.08T1059,544.26a42.34,42.34,0,0,1-10.75-6.3,28.9,28.9,0,0,1-7.63-9.57q-2.9-5.73-2.89-14.35a33.9,33.9,0,0,1,2.56-13,32.31,32.31,0,0,1,7.48-11,36.55,36.55,0,0,1,12.18-7.67,44.25,44.25,0,0,1,16.52-2.89,50,50,0,0,1,18.71,3.31,44.79,44.79,0,0,1,15.11,10.14Z"/> <path class="cls-1" d="M1071.21,617.89c-9,0-16.89-1.62-23.42-4.83a55.3,55.3,0,0,1-17.19-13.15l-.67-.77,3.19-5a4.74,4.74,0,0,1,3.8-2,4.87,4.87,0,0,1,3.06,1.46l3.23,2.8c1.22,1.07,2.72,2.26,4.46,3.53a36.35,36.35,0,0,0,5.93,3.47,42,42,0,0,0,7.8,2.7,41.41,41.41,0,0,0,10,1.1,38.09,38.09,0,0,0,13.72-2.32,29.93,29.93,0,0,0,10.11-6.3,26.75,26.75,0,0,0,6.27-9.42,31.85,31.85,0,0,0,2.17-11.77c0-4.45-.9-8.15-2.68-11a23.77,23.77,0,0,0-7.21-7.26,48.76,48.76,0,0,0-10.46-5c-4-1.38-8.16-2.75-12.32-4s-8.46-2.85-12.48-4.5a43.55,43.55,0,0,1-11.08-6.5,30.29,30.29,0,0,1-8-10c-2-4-3-9-3-15a35.38,35.38,0,0,1,2.66-13.49,33.74,33.74,0,0,1,7.79-11.49,38.16,38.16,0,0,1,12.61-8,46,46,0,0,1,17-3,51.45,51.45,0,0,1,19.21,3.41A46.31,46.31,0,0,1,1111.29,492l.7.7-2.74,5.25a4,4,0,0,1-3.65,2.33c-1.2,0-2.5-.67-4.08-2.1a39.7,39.7,0,0,0-5.09-3.75,40.33,40.33,0,0,0-8-3.8,40.24,40.24,0,0,0-24.17.28,25.54,25.54,0,0,0-8.82,5.39,22.84,22.84,0,0,0-5.37,7.88,24.76,24.76,0,0,0-1.84,9.43,19.08,19.08,0,0,0,2.67,10.53,24.77,24.77,0,0,0,7.23,7.19,48,48,0,0,0,10.46,5.11q6,2.13,12.34,4.21c4.22,1.38,8.41,2.94,12.45,4.63a45.91,45.91,0,0,1,11.08,6.49,30.38,30.38,0,0,1,8,9.76c2,3.87,3,8.72,3,14.41a44.91,44.91,0,0,1-3,16.36,38.49,38.49,0,0,1-8.69,13.39,40.8,40.8,0,0,1-13.9,9A50.36,50.36,0,0,1,1071.21,617.89Zm-37.9-19A52.6,52.6,0,0,0,1049,610.63c6.17,3,13.65,4.55,22.24,4.55a47.64,47.64,0,0,0,17.68-3.07,38.22,38.22,0,0,0,13-8.37,35.85,35.85,0,0,0,8.08-12.46,42.21,42.21,0,0,0,2.8-15.38,28.36,28.36,0,0,0-2.74-13.16,27.69,27.69,0,0,0-7.27-8.9,43.58,43.58,0,0,0-10.43-6.1c-4-1.66-8.1-3.2-12.26-4.56s-8.37-2.8-12.39-4.23a50.92,50.92,0,0,1-11-5.4,27.53,27.53,0,0,1-8-8,21.76,21.76,0,0,1-3.11-12,27.39,27.39,0,0,1,2-10.46,25.65,25.65,0,0,1,6-8.8,28.34,28.34,0,0,1,9.75-6,43,43,0,0,1,26-.3,42,42,0,0,1,14,8.09c1.48,1.33,2.15,1.4,2.27,1.4.41,0,.85-.1,1.26-.88l1.81-3.47a43.56,43.56,0,0,0-14-9.14,49,49,0,0,0-18.21-3.22,43.07,43.07,0,0,0-16,2.8,35.48,35.48,0,0,0-11.73,7.38,31,31,0,0,0-7.18,10.58,32.75,32.75,0,0,0-2.46,12.46c0,5.51.93,10.13,2.75,13.74a27.61,27.61,0,0,0,7.27,9.13,41.32,41.32,0,0,0,10.41,6.1c3.94,1.61,8.06,3.1,12.26,4.41s8.36,2.69,12.39,4.09a51.19,51.19,0,0,1,11,5.3,26.25,26.25,0,0,1,8,8.09c2.06,3.27,3.1,7.45,3.1,12.42a34.34,34.34,0,0,1-2.37,12.77,29.38,29.38,0,0,1-6.9,10.37,32.68,32.68,0,0,1-11,6.87,40.82,40.82,0,0,1-14.7,2.51,44.21,44.21,0,0,1-10.65-1.18,45.4,45.4,0,0,1-8.3-2.88,40.13,40.13,0,0,1-6.39-3.73c-1.8-1.32-3.36-2.56-4.63-3.68s-2.33-2-3.21-2.78-1.3-.81-1.3-.81a2,2,0,0,0-1.6.91Z"/> <path class="cls-1" d="M1247.78,481V615H1238V550.8h-83.93V615h-9.75V481h9.75V543.5H1238V481Z"/> <path class="cls-1" d="M1249.13,616.37h-12.46V552.15h-81.22v64.22H1143V479.63h12.47v62.52h81.22V479.63h12.46Zm-9.76-2.7h7.05V482.34h-7.05v62.52h-86.63V482.34h-7V613.67h7V549.44h86.63Z"/> <path class="cls-1" d="M1384.09,592.48a2.17,2.17,0,0,1,1.6.66l3.79,4.07a64.06,64.06,0,0,1-9,8,55.06,55.06,0,0,1-10.71,6.06,62.85,62.85,0,0,1-12.78,3.88,78.91,78.91,0,0,1-15.3,1.37,65.29,65.29,0,0,1-25.53-4.87,57.1,57.1,0,0,1-19.94-13.83,62.43,62.43,0,0,1-12.93-21.65,82.52,82.52,0,0,1-4.59-28.23,78.56,78.56,0,0,1,4.73-27.85,64.1,64.1,0,0,1,13.26-21.64,59,59,0,0,1,20.46-14,68,68,0,0,1,26.34-5,64.94,64.94,0,0,1,24.34,4.26,65.64,65.64,0,0,1,19.33,12l-2.94,4.26a2.63,2.63,0,0,1-2.37,1.14c-.76,0-2-.69-3.69-2.08a49.94,49.94,0,0,0-7.11-4.6,60.48,60.48,0,0,0-11.32-4.59,55.57,55.57,0,0,0-16.24-2.09,57.63,57.63,0,0,0-22.22,4.17,49,49,0,0,0-17.33,11.94,55,55,0,0,0-11.32,18.94,79.86,79.86,0,0,0,.05,50.49,55.52,55.52,0,0,0,11.32,18.9,48.92,48.92,0,0,0,17,11.84,54,54,0,0,0,21.17,4.12,78.25,78.25,0,0,0,12.84-1,50.58,50.58,0,0,0,10.37-2.84,46.72,46.72,0,0,0,8.81-4.64,67,67,0,0,0,8-6.44,5.7,5.7,0,0,1,1-.62A2,2,0,0,1,1384.09,592.48Z"/> <path class="cls-1" d="M1341.65,617.89a66.93,66.93,0,0,1-26.05-5,58.88,58.88,0,0,1-20.41-14.16A64.13,64.13,0,0,1,1282,576.64,83.9,83.9,0,0,1,1277.3,548a80,80,0,0,1,4.83-28.32,65.45,65.45,0,0,1,13.54-22.1,60.52,60.52,0,0,1,20.92-14.34,69.47,69.47,0,0,1,26.86-5.07,66.48,66.48,0,0,1,24.85,4.36A67.3,67.3,0,0,1,1388,494.75l.89.79-3.61,5.25a4,4,0,0,1-3.49,1.72c-1.12,0-2.52-.73-4.55-2.38a47.29,47.29,0,0,0-6.9-4.46,59.72,59.72,0,0,0-11.07-4.49,54.62,54.62,0,0,0-15.84-2,56.7,56.7,0,0,0-21.7,4.06,47.87,47.87,0,0,0-16.86,11.61,53.9,53.9,0,0,0-11,18.49,78.45,78.45,0,0,0,.05,49.55,54.21,54.21,0,0,0,11,18.45,47.67,47.67,0,0,0,16.53,11.51,52.94,52.94,0,0,0,20.65,4,76.65,76.65,0,0,0,12.61-.93,49.57,49.57,0,0,0,10.1-2.76,46,46,0,0,0,8.55-4.51,65.27,65.27,0,0,0,7.89-6.31,6.55,6.55,0,0,1,1.26-.84,3.54,3.54,0,0,1,4.12.68l4.68,5-.86.93a65.51,65.51,0,0,1-9.24,8.17,56.1,56.1,0,0,1-11,6.21,64.34,64.34,0,0,1-13.06,4A80.79,80.79,0,0,1,1341.65,617.89Zm1.8-137.07a66.84,66.84,0,0,0-25.82,4.87,57.8,57.8,0,0,0-20,13.7,63,63,0,0,0-13,21.19A77.52,77.52,0,0,0,1280,548a81.57,81.57,0,0,0,4.51,27.77,61.57,61.57,0,0,0,12.65,21.19,56.16,56.16,0,0,0,19.47,13.5,64.1,64.1,0,0,0,25,4.77,78.51,78.51,0,0,0,15-1.34,63,63,0,0,0,12.52-3.8,53.74,53.74,0,0,0,10.44-5.92,62.14,62.14,0,0,0,8-6.92l-2.92-3.14a.75.75,0,0,0-1-.14,3.63,3.63,0,0,0-.71.47,68.77,68.77,0,0,1-8.14,6.5,48.6,48.6,0,0,1-9.07,4.78,52,52,0,0,1-10.65,2.92,80,80,0,0,1-13.06,1,55.73,55.73,0,0,1-21.69-4.22A50.38,50.38,0,0,1,1303,593.16a57,57,0,0,1-11.6-19.35,81.25,81.25,0,0,1,0-51.42,56.4,56.4,0,0,1,11.6-19.4,50.58,50.58,0,0,1,17.81-12.27,59.32,59.32,0,0,1,22.73-4.27,57.29,57.29,0,0,1,16.64,2.14,62.15,62.15,0,0,1,11.58,4.71A50,50,0,0,1,1379,498c2.13,1.73,2.82,1.78,2.84,1.78.78,0,1.07-.27,1.24-.54l2.27-3.29a64.56,64.56,0,0,0-18-11A63.79,63.79,0,0,0,1343.45,480.82Z"/> <path class="cls-1" d="M1532.23,548a81.2,81.2,0,0,1-4.64,28.19,62.36,62.36,0,0,1-13.07,21.59,57.65,57.65,0,0,1-20.22,13.83,71.6,71.6,0,0,1-52,0,57.76,57.76,0,0,1-20.18-13.83,62.51,62.51,0,0,1-13.07-21.59,87.62,87.62,0,0,1,0-56.27,62.56,62.56,0,0,1,13.07-21.6,58.43,58.43,0,0,1,20.18-13.88,66.52,66.52,0,0,1,26-4.92,67.25,67.25,0,0,1,26,4.88,57.48,57.48,0,0,1,20.22,13.87,63,63,0,0,1,13.07,21.65A80.85,80.85,0,0,1,1532.23,548Zm-10,0a76.43,76.43,0,0,0-3.88-25.19,53.86,53.86,0,0,0-11-18.95,47.46,47.46,0,0,0-17-11.89,60.42,60.42,0,0,0-43.86,0,47.87,47.87,0,0,0-17.09,11.89,54,54,0,0,0-11.09,18.95,82.89,82.89,0,0,0,0,50.44,54.09,54.09,0,0,0,11.09,18.9,47.25,47.25,0,0,0,17.09,11.84,61.12,61.12,0,0,0,43.86,0,46.85,46.85,0,0,0,17-11.84,53.9,53.9,0,0,0,11-18.9A76.34,76.34,0,0,0,1522.19,548Z"/> <path class="cls-1" d="M1468.29,617.8a68.62,68.62,0,0,1-26.47-5,59.31,59.31,0,0,1-20.64-14.15,63.93,63.93,0,0,1-13.36-22.06,89,89,0,0,1,0-57.2,64,64,0,0,1,13.36-22.06,59.86,59.86,0,0,1,20.64-14.19,68.08,68.08,0,0,1,26.47-5,69,69,0,0,1,26.53,5,59.09,59.09,0,0,1,20.69,14.2,64.47,64.47,0,0,1,13.35,22.1,88.83,88.83,0,0,1,0,57.2,64.07,64.07,0,0,1-13.35,22.06,59.41,59.41,0,0,1-20.69,14.15A69,69,0,0,1,1468.29,617.8Zm0-137a65.47,65.47,0,0,0-25.43,4.82,57.4,57.4,0,0,0-19.71,13.56,61.31,61.31,0,0,0-12.79,21.13,86.23,86.23,0,0,0,0,55.34,61.31,61.31,0,0,0,12.79,21.13,56.59,56.59,0,0,0,19.71,13.51,70.19,70.19,0,0,0,50.92,0,56.48,56.48,0,0,0,19.75-13.51,61.31,61.31,0,0,0,12.79-21.13,86.23,86.23,0,0,0,0-55.34,61.85,61.85,0,0,0-12.79-21.18,56.31,56.31,0,0,0-19.75-13.55A66.32,66.32,0,0,0,1468.29,480.82Zm0,128.54a58.83,58.83,0,0,1-22.39-4.17A48.82,48.82,0,0,1,1428.32,593,55.57,55.57,0,0,1,1417,573.65a84.17,84.17,0,0,1,0-51.34,55.62,55.62,0,0,1,11.36-19.41,49.49,49.49,0,0,1,17.57-12.23,61.83,61.83,0,0,1,44.9,0,49,49,0,0,1,17.53,12.23,55.36,55.36,0,0,1,11.27,19.41,85.18,85.18,0,0,1,0,51.34A55.4,55.4,0,0,1,1508.32,593a48.45,48.45,0,0,1-17.54,12.18A59.06,59.06,0,0,1,1468.29,609.36Zm0-120.2a55.51,55.51,0,0,0-21.36,4,46.6,46.6,0,0,0-16.62,11.55,52.78,52.78,0,0,0-10.8,18.48,81.61,81.61,0,0,0,0,49.54,52.92,52.92,0,0,0,10.8,18.43,46.17,46.17,0,0,0,16.62,11.51,59.74,59.74,0,0,0,42.83,0,45.77,45.77,0,0,0,16.56-11.51A52.72,52.72,0,0,0,1517,572.75a82.46,82.46,0,0,0,0-49.55,52.72,52.72,0,0,0-10.71-18.47,46.07,46.07,0,0,0-16.57-11.55A55.69,55.69,0,0,0,1468.29,489.16Z"/> <path class="cls-1" d="M1676,548a79.42,79.42,0,0,1-4.64,27.95A60.45,60.45,0,0,1,1658.31,597a56.65,56.65,0,0,1-20.22,13.36,70.5,70.5,0,0,1-26,4.64h-49V481h49a70.29,70.29,0,0,1,26,4.65A56.5,56.5,0,0,1,1658.31,499a60.45,60.45,0,0,1,13.08,21.12A79.17,79.17,0,0,1,1676,548Zm-10,0a74.73,74.73,0,0,0-3.89-25,52.06,52.06,0,0,0-11-18.57,46.94,46.94,0,0,0-17-11.56,58.68,58.68,0,0,0-22-4h-39.22V607.16h39.22a58.68,58.68,0,0,0,22-4,46.7,46.7,0,0,0,17-11.56,52.1,52.1,0,0,0,11-18.56A75.1,75.1,0,0,0,1666,548Z"/> <path class="cls-1" d="M1612.09,616.37h-50.33V479.63h50.33a72,72,0,0,1,26.5,4.74,58.24,58.24,0,0,1,20.7,13.67,62,62,0,0,1,13.36,21.59,87.44,87.44,0,0,1,0,56.74A62,62,0,0,1,1659.29,598a58.13,58.13,0,0,1-20.7,13.68A72.16,72.16,0,0,1,1612.09,616.37Zm-47.62-2.7h47.62a69.28,69.28,0,0,0,25.5-4.55,55.52,55.52,0,0,0,19.75-13,59.49,59.49,0,0,0,12.78-20.65,84.93,84.93,0,0,0,0-54.85,59.24,59.24,0,0,0-12.78-20.66,55.65,55.65,0,0,0-19.75-13,69.56,69.56,0,0,0-25.5-4.54h-47.62Zm47.62-5.16h-40.57v-121h40.57a60.23,60.23,0,0,1,22.48,4.08,48.4,48.4,0,0,1,17.53,11.89,53.7,53.7,0,0,1,11.28,19,84.11,84.11,0,0,1,0,51,53.7,53.7,0,0,1-11.28,19,48.65,48.65,0,0,1-17.53,11.89A60.36,60.36,0,0,1,1612.09,608.51Zm-37.87-2.71h37.87a57.46,57.46,0,0,0,21.47-3.88,45.76,45.76,0,0,0,16.57-11.22,51,51,0,0,0,10.69-18.09,81.35,81.35,0,0,0,0-49.21,51,51,0,0,0-10.69-18.09,45.87,45.87,0,0,0-16.57-11.23,57.53,57.53,0,0,0-21.47-3.88h-37.87Z"/> <path class="cls-1" d="M1787.62,607l-.2,8H1707.1V481h80.32V489h-70.57v54.18h58.73v7.86h-58.73V607Z"/> <path class="cls-1" d="M1788.75,616.37h-83V479.63h83v10.76h-70.57v51.47h58.73v10.57h-58.73v53.19H1789Zm-80.3-2.7h77.65l.13-5.35H1715.5V549.73h58.73v-5.16H1715.5V487.68h70.57v-5.34h-77.62Z"/> <polygon class="cls-2" points="452.16 474.56 452.16 474.56 529.11 551.87 452.16 629.1 452.16 629.1 633.03 551.87 452.16 474.56"/> <polygon class="cls-3" points="493.93 411.91 493.93 411.91 171.47 551.86 493.93 691.75 493.93 691.75 354.71 551.87 493.93 411.91"/> <polygon class="cls-4" points="452.16 629.1 452.16 629.1 503.39 681.23 633.03 551.87 452.16 629.1"/> <polygon class="cls-4" points="452.16 474.56 452.16 474.57 633.03 551.87 503.39 422.5 452.16 474.56"/> <polygon class="cls-5" points="402.74 782.64 493.93 691.75 171.47 551.86 402.74 782.64"/> <polygon class="cls-5" points="402.74 321.08 171.47 551.86 493.93 411.91 402.74 321.08"/> <polygon class="cls-6" points="171.47 551.86 354.71 551.86 493.93 691.75 171.47 551.86"/> <polygon class="cls-7" points="529.11 551.86 633.03 551.86 452.46 628.8 529.11 551.86"/> </svg>